<mxfile host="app.diagrams.net" agent="Mozilla/5.0 (Windows NT 10.0; Win64; x64; rv:133.0) Gecko/20100101 Firefox/133.0" version="25.0.1">
  <diagram name="Page-1" id="HNdaLB06FwLKPcHaJw4l">
    <mxGraphModel dx="1146" dy="157" grid="1" gridSize="10" guides="1" tooltips="1" connect="1" arrows="1" fold="1" page="1" pageScale="1" pageWidth="850" pageHeight="1100" math="0" shadow="0">
      <root>
        <mxCell id="0" />
        <mxCell id="1" parent="0" />
        <mxCell id="R4eB-m3aGLz5YVXcL1x6-7" value="" style="shape=stencil(rZPhDoIgFIWfhr8NYc3+Nqv3QKVkEjggrbfvKupKw5Vrc2z3HM6H3iuIJrZgFUcEF4geECERxrBC3UxqZiueOS/WzAiWSu4d64wueSNy1zOEKrgRrnXpEeE97GkfmmRaKYAIreyb8+IDjAkFWXz3sP74R19tyNYLiJxWM+IVjGjCWPMaQ2iE7AIUmoAS6hZNUpaVF6NvKp+ngt5ZG/7BGG0hpZ/kwldVrJ3xzBjsq655sOtL/RoAUqggYPwTf0GMoR4S/4FBv2JkUtulVoIe6CbcydAcuthskJ3q73EnPAE=);whiteSpace=wrap;html=1;flipV=1;fontSize=8;" vertex="1" parent="1">
          <mxGeometry x="425" y="500" width="55" height="110" as="geometry" />
        </mxCell>
        <mxCell id="R4eB-m3aGLz5YVXcL1x6-8" value="" style="endArrow=none;html=1;rounded=0;entryX=-0.005;entryY=0.826;entryDx=0;entryDy=0;entryPerimeter=0;" edge="1" parent="1">
          <mxGeometry width="50" height="50" relative="1" as="geometry">
            <mxPoint x="400" y="520" as="sourcePoint" />
            <mxPoint x="424.72499999999997" y="520.14" as="targetPoint" />
          </mxGeometry>
        </mxCell>
        <mxCell id="R4eB-m3aGLz5YVXcL1x6-9" value="" style="endArrow=none;html=1;rounded=0;" edge="1" parent="1">
          <mxGeometry width="50" height="50" relative="1" as="geometry">
            <mxPoint x="400" y="570" as="sourcePoint" />
            <mxPoint x="425" y="570" as="targetPoint" />
          </mxGeometry>
        </mxCell>
        <mxCell id="R4eB-m3aGLz5YVXcL1x6-10" value="" style="endArrow=none;html=1;rounded=0;entryX=0.003;entryY=0.64;entryDx=0;entryDy=0;entryPerimeter=0;" edge="1" parent="1" target="R4eB-m3aGLz5YVXcL1x6-7">
          <mxGeometry width="50" height="50" relative="1" as="geometry">
            <mxPoint x="350" y="540" as="sourcePoint" />
            <mxPoint x="360" y="560" as="targetPoint" />
          </mxGeometry>
        </mxCell>
        <mxCell id="R4eB-m3aGLz5YVXcL1x6-37" value="i_add" style="edgeLabel;html=1;align=center;verticalAlign=middle;resizable=0;points=[];" vertex="1" connectable="0" parent="R4eB-m3aGLz5YVXcL1x6-10">
          <mxGeometry x="-0.4812" relative="1" as="geometry">
            <mxPoint x="-19" y="-10" as="offset" />
          </mxGeometry>
        </mxCell>
        <mxCell id="R4eB-m3aGLz5YVXcL1x6-11" value="" style="endArrow=none;html=1;rounded=0;" edge="1" parent="1">
          <mxGeometry width="50" height="50" relative="1" as="geometry">
            <mxPoint x="400" y="590" as="sourcePoint" />
            <mxPoint x="425" y="590" as="targetPoint" />
          </mxGeometry>
        </mxCell>
        <mxCell id="R4eB-m3aGLz5YVXcL1x6-12" value="" style="endArrow=none;html=1;rounded=0;" edge="1" parent="1" target="R4eB-m3aGLz5YVXcL1x6-13">
          <mxGeometry width="50" height="50" relative="1" as="geometry">
            <mxPoint x="480" y="560" as="sourcePoint" />
            <mxPoint x="530" y="560" as="targetPoint" />
          </mxGeometry>
        </mxCell>
        <mxCell id="R4eB-m3aGLz5YVXcL1x6-76" value="" style="edgeStyle=orthogonalEdgeStyle;rounded=0;orthogonalLoop=1;jettySize=auto;html=1;" edge="1" parent="1" source="R4eB-m3aGLz5YVXcL1x6-13">
          <mxGeometry relative="1" as="geometry">
            <mxPoint x="730" y="560" as="targetPoint" />
          </mxGeometry>
        </mxCell>
        <mxCell id="R4eB-m3aGLz5YVXcL1x6-13" value="reg 5" style="rounded=0;whiteSpace=wrap;html=1;" vertex="1" parent="1">
          <mxGeometry x="530" y="530" width="120" height="60" as="geometry" />
        </mxCell>
        <mxCell id="R4eB-m3aGLz5YVXcL1x6-22" value="" style="endArrow=none;html=1;rounded=0;exitX=0.5;exitY=0;exitDx=0;exitDy=0;" edge="1" parent="1" source="R4eB-m3aGLz5YVXcL1x6-13">
          <mxGeometry width="50" height="50" relative="1" as="geometry">
            <mxPoint x="570" y="510" as="sourcePoint" />
            <mxPoint x="590" y="450" as="targetPoint" />
          </mxGeometry>
        </mxCell>
        <mxCell id="R4eB-m3aGLz5YVXcL1x6-23" value="+" style="shape=stencil(rZTvDoIgFMWfhq8OIZt9bFbvQUrJInBg/96+q5RTzFbU5tzuOd6fXDmCaGZLVnFEcInoChESYwx3qC9ezWzF89qJZ2YE20ruHFsbfeAXUdQPhlAlN6JuXLpGeAnPNBfNcq0UQIRWduD0fIAxoaAXXx0MR8S95vaoXYXI5gtE+jsiGSDiEAT2lhHNQiix9z2ieQhl4UGS1xCagTK1bTTbsvywN/qkinHXpLfThr8wOltI6SL1ZqiKNWEbGU/7qM+8N+3nu/8ESKF6AI/Q/RPfMNI/MLqm8FHmPxOSIYEGIGYBi8iltu8SAfpEKOCMm4pT2zbKY6u6c7EV7g==);whiteSpace=wrap;html=1;rotation=-90;" vertex="1" parent="1">
          <mxGeometry x="600" y="390" width="100" height="60" as="geometry" />
        </mxCell>
        <mxCell id="R4eB-m3aGLz5YVXcL1x6-26" value="" style="endArrow=none;html=1;rounded=0;exitX=0.2;exitY=0;exitDx=0;exitDy=0;exitPerimeter=0;" edge="1" parent="1" source="R4eB-m3aGLz5YVXcL1x6-23">
          <mxGeometry width="50" height="50" relative="1" as="geometry">
            <mxPoint x="580" y="240" as="sourcePoint" />
            <mxPoint x="590" y="450" as="targetPoint" />
          </mxGeometry>
        </mxCell>
        <mxCell id="R4eB-m3aGLz5YVXcL1x6-27" value="" style="endArrow=none;html=1;rounded=0;exitX=0.8;exitY=0;exitDx=0;exitDy=0;exitPerimeter=0;" edge="1" parent="1" source="R4eB-m3aGLz5YVXcL1x6-23">
          <mxGeometry width="50" height="50" relative="1" as="geometry">
            <mxPoint x="630" y="320" as="sourcePoint" />
            <mxPoint x="590" y="390" as="targetPoint" />
          </mxGeometry>
        </mxCell>
        <mxCell id="R4eB-m3aGLz5YVXcL1x6-28" value="2" style="edgeLabel;html=1;align=center;verticalAlign=middle;resizable=0;points=[];" vertex="1" connectable="0" parent="R4eB-m3aGLz5YVXcL1x6-27">
          <mxGeometry x="0.5467" y="1" relative="1" as="geometry">
            <mxPoint x="-7" y="-11" as="offset" />
          </mxGeometry>
        </mxCell>
        <mxCell id="R4eB-m3aGLz5YVXcL1x6-33" value="" style="endArrow=none;html=1;rounded=0;entryX=0.5;entryY=1;entryDx=0;entryDy=0;entryPerimeter=0;" edge="1" parent="1" target="R4eB-m3aGLz5YVXcL1x6-23">
          <mxGeometry width="50" height="50" relative="1" as="geometry">
            <mxPoint x="750" y="420" as="sourcePoint" />
            <mxPoint x="680" y="279.57" as="targetPoint" />
            <Array as="points" />
          </mxGeometry>
        </mxCell>
        <mxCell id="R4eB-m3aGLz5YVXcL1x6-34" value="" style="endArrow=none;html=1;rounded=0;" edge="1" parent="1">
          <mxGeometry width="50" height="50" relative="1" as="geometry">
            <mxPoint x="750" y="420" as="sourcePoint" />
            <mxPoint x="750" y="320" as="targetPoint" />
            <Array as="points" />
          </mxGeometry>
        </mxCell>
        <mxCell id="R4eB-m3aGLz5YVXcL1x6-35" value="" style="endArrow=none;html=1;rounded=0;" edge="1" parent="1">
          <mxGeometry width="50" height="50" relative="1" as="geometry">
            <mxPoint x="400" y="520" as="sourcePoint" />
            <mxPoint x="400" y="320" as="targetPoint" />
            <Array as="points" />
          </mxGeometry>
        </mxCell>
        <mxCell id="R4eB-m3aGLz5YVXcL1x6-36" value="" style="endArrow=none;html=1;rounded=0;" edge="1" parent="1">
          <mxGeometry width="50" height="50" relative="1" as="geometry">
            <mxPoint x="400" y="320" as="sourcePoint" />
            <mxPoint x="750" y="320" as="targetPoint" />
            <Array as="points" />
          </mxGeometry>
        </mxCell>
        <mxCell id="R4eB-m3aGLz5YVXcL1x6-38" value="&lt;font style=&quot;font-size: 8px;&quot;&gt;00&lt;/font&gt;" style="text;html=1;align=center;verticalAlign=middle;resizable=0;points=[];autosize=1;strokeColor=none;fillColor=none;" vertex="1" parent="1">
          <mxGeometry x="416" y="500" width="30" height="30" as="geometry" />
        </mxCell>
        <mxCell id="R4eB-m3aGLz5YVXcL1x6-39" value="&lt;font style=&quot;font-size: 8px;&quot;&gt;01&lt;/font&gt;" style="text;html=1;align=center;verticalAlign=middle;resizable=0;points=[];autosize=1;strokeColor=none;fillColor=none;" vertex="1" parent="1">
          <mxGeometry x="416" y="522" width="30" height="30" as="geometry" />
        </mxCell>
        <mxCell id="R4eB-m3aGLz5YVXcL1x6-40" value="&lt;div&gt;&lt;font style=&quot;font-size: 8px;&quot;&gt;X&lt;/font&gt;&lt;/div&gt;" style="text;html=1;align=center;verticalAlign=middle;resizable=0;points=[];autosize=1;strokeColor=none;fillColor=none;" vertex="1" parent="1">
          <mxGeometry x="415" y="552" width="30" height="30" as="geometry" />
        </mxCell>
        <mxCell id="R4eB-m3aGLz5YVXcL1x6-41" value="&lt;font style=&quot;font-size: 8px;&quot;&gt;11&lt;/font&gt;" style="text;html=1;align=center;verticalAlign=middle;resizable=0;points=[];autosize=1;strokeColor=none;fillColor=none;" vertex="1" parent="1">
          <mxGeometry x="415" y="576" width="30" height="30" as="geometry" />
        </mxCell>
        <mxCell id="R4eB-m3aGLz5YVXcL1x6-43" value="" style="endArrow=none;html=1;rounded=0;exitX=0.2;exitY=0;exitDx=0;exitDy=0;exitPerimeter=0;" edge="1" source="R4eB-m3aGLz5YVXcL1x6-46" parent="1">
          <mxGeometry width="50" height="50" relative="1" as="geometry">
            <mxPoint x="580" y="512" as="sourcePoint" />
            <mxPoint x="590" y="722" as="targetPoint" />
          </mxGeometry>
        </mxCell>
        <mxCell id="R4eB-m3aGLz5YVXcL1x6-51" value="1" style="edgeLabel;html=1;align=center;verticalAlign=middle;resizable=0;points=[];" vertex="1" connectable="0" parent="R4eB-m3aGLz5YVXcL1x6-43">
          <mxGeometry x="0.2737" y="-1" relative="1" as="geometry">
            <mxPoint x="-11" y="-9" as="offset" />
          </mxGeometry>
        </mxCell>
        <mxCell id="R4eB-m3aGLz5YVXcL1x6-44" value="" style="endArrow=none;html=1;rounded=0;exitX=0.8;exitY=0;exitDx=0;exitDy=0;exitPerimeter=0;" edge="1" parent="1">
          <mxGeometry width="50" height="50" relative="1" as="geometry">
            <mxPoint x="620" y="660" as="sourcePoint" />
            <mxPoint x="590" y="660" as="targetPoint" />
          </mxGeometry>
        </mxCell>
        <mxCell id="R4eB-m3aGLz5YVXcL1x6-46" value="I" style="shape=stencil(rZTvDoIgFMWfhq8OIZt9bFbvQUrJInBg/96+q5RTzFbU5tzuOd6fXDmCaGZLVnFEcInoChESYwx3qC9ezWzF89qJZ2YE20ruHFsbfeAXUdQPhlAlN6JuXLpGeAnPNBfNcq0UQIRWduD0fIAxoaAXXx0MR8S95vaoXYXI5gtE+jsiGSDiEAT2lhHNQiix9z2ieQhl4UGS1xCagTK1bTTbsvywN/qkinHXpLfThr8wOltI6SL1ZqiKNWEbGU/7qM+8N+3nu/8ESKF6AI/Q/RPfMNI/MLqm8FHmPxOSIYEGIGYBi8iltu8SAfpEKOCMm4pT2zbKY6u6c7EV7g==);whiteSpace=wrap;html=1;rotation=-90;" vertex="1" parent="1">
          <mxGeometry x="600" y="662" width="100" height="60" as="geometry" />
        </mxCell>
        <mxCell id="R4eB-m3aGLz5YVXcL1x6-47" value="" style="endArrow=none;html=1;rounded=0;" edge="1" parent="1">
          <mxGeometry width="50" height="50" relative="1" as="geometry">
            <mxPoint x="400" y="792" as="sourcePoint" />
            <mxPoint x="750" y="792" as="targetPoint" />
            <Array as="points" />
          </mxGeometry>
        </mxCell>
        <mxCell id="R4eB-m3aGLz5YVXcL1x6-48" value="" style="endArrow=none;html=1;rounded=0;" edge="1" parent="1">
          <mxGeometry width="50" height="50" relative="1" as="geometry">
            <mxPoint x="750" y="792" as="sourcePoint" />
            <mxPoint x="750" y="692" as="targetPoint" />
            <Array as="points" />
          </mxGeometry>
        </mxCell>
        <mxCell id="R4eB-m3aGLz5YVXcL1x6-49" value="" style="endArrow=none;html=1;rounded=0;entryX=0.5;entryY=1;entryDx=0;entryDy=0;entryPerimeter=0;" edge="1" target="R4eB-m3aGLz5YVXcL1x6-46" parent="1">
          <mxGeometry width="50" height="50" relative="1" as="geometry">
            <mxPoint x="750" y="692" as="sourcePoint" />
            <mxPoint x="680" y="551.5699999999999" as="targetPoint" />
            <Array as="points" />
          </mxGeometry>
        </mxCell>
        <mxCell id="R4eB-m3aGLz5YVXcL1x6-50" value="" style="endArrow=none;html=1;rounded=0;" edge="1" parent="1">
          <mxGeometry width="50" height="50" relative="1" as="geometry">
            <mxPoint x="400" y="792" as="sourcePoint" />
            <mxPoint x="400" y="590" as="targetPoint" />
            <Array as="points" />
          </mxGeometry>
        </mxCell>
        <mxCell id="R4eB-m3aGLz5YVXcL1x6-52" value="" style="endArrow=none;html=1;rounded=0;entryX=0.5;entryY=1;entryDx=0;entryDy=0;" edge="1" parent="1">
          <mxGeometry width="50" height="50" relative="1" as="geometry">
            <mxPoint x="590" y="660" as="sourcePoint" />
            <mxPoint x="590" y="590" as="targetPoint" />
            <Array as="points" />
          </mxGeometry>
        </mxCell>
        <mxCell id="R4eB-m3aGLz5YVXcL1x6-53" value="&lt;font style=&quot;font-size: 18px;&quot;&gt;&lt;b&gt;ADD&lt;/b&gt;&lt;/font&gt;" style="text;html=1;align=center;verticalAlign=middle;resizable=0;points=[];autosize=1;strokeColor=none;fillColor=none;" vertex="1" parent="1">
          <mxGeometry x="300" y="290" width="60" height="40" as="geometry" />
        </mxCell>
        <mxCell id="R4eB-m3aGLz5YVXcL1x6-54" value="" style="shape=stencil(rZPhDoIgFIWfhr8NYc3+Nqv3QKVkEjggrbfvKupKw5Vrc2z3HM6H3iuIJrZgFUcEF4geECERxrBC3UxqZiueOS/WzAiWSu4d64wueSNy1zOEKrgRrnXpEeE97GkfmmRaKYAIreyb8+IDjAkFWXz3sP74R19tyNYLiJxWM+IVjGjCWPMaQ2iE7AIUmoAS6hZNUpaVF6NvKp+ngt5ZG/7BGG0hpZ/kwldVrJ3xzBjsq655sOtL/RoAUqggYPwTf0GMoR4S/4FBv2JkUtulVoIe6CbcydAcuthskJ3q73EnPAE=);whiteSpace=wrap;html=1;flipV=1;fontSize=8;" vertex="1" parent="1">
          <mxGeometry x="435" y="860" width="55" height="110" as="geometry" />
        </mxCell>
        <mxCell id="R4eB-m3aGLz5YVXcL1x6-56" value="" style="endArrow=none;html=1;rounded=0;" edge="1" parent="1">
          <mxGeometry width="50" height="50" relative="1" as="geometry">
            <mxPoint x="410" y="930" as="sourcePoint" />
            <mxPoint x="435" y="930" as="targetPoint" />
          </mxGeometry>
        </mxCell>
        <mxCell id="R4eB-m3aGLz5YVXcL1x6-57" value="" style="endArrow=none;html=1;rounded=0;entryX=0.003;entryY=0.64;entryDx=0;entryDy=0;entryPerimeter=0;" edge="1" target="R4eB-m3aGLz5YVXcL1x6-54" parent="1">
          <mxGeometry width="50" height="50" relative="1" as="geometry">
            <mxPoint x="360" y="900" as="sourcePoint" />
            <mxPoint x="370" y="920" as="targetPoint" />
          </mxGeometry>
        </mxCell>
        <mxCell id="R4eB-m3aGLz5YVXcL1x6-58" value="i_k" style="edgeLabel;html=1;align=center;verticalAlign=middle;resizable=0;points=[];" vertex="1" connectable="0" parent="R4eB-m3aGLz5YVXcL1x6-57">
          <mxGeometry x="-0.4812" relative="1" as="geometry">
            <mxPoint x="-19" y="-10" as="offset" />
          </mxGeometry>
        </mxCell>
        <mxCell id="R4eB-m3aGLz5YVXcL1x6-60" value="" style="endArrow=none;html=1;rounded=0;" edge="1" target="R4eB-m3aGLz5YVXcL1x6-61" parent="1">
          <mxGeometry width="50" height="50" relative="1" as="geometry">
            <mxPoint x="490" y="920" as="sourcePoint" />
            <mxPoint x="540" y="920" as="targetPoint" />
          </mxGeometry>
        </mxCell>
        <mxCell id="R4eB-m3aGLz5YVXcL1x6-80" value="" style="edgeStyle=orthogonalEdgeStyle;rounded=0;orthogonalLoop=1;jettySize=auto;html=1;" edge="1" parent="1" source="R4eB-m3aGLz5YVXcL1x6-61" target="R4eB-m3aGLz5YVXcL1x6-79">
          <mxGeometry relative="1" as="geometry" />
        </mxCell>
        <mxCell id="R4eB-m3aGLz5YVXcL1x6-61" value="reg 4" style="rounded=0;whiteSpace=wrap;html=1;" vertex="1" parent="1">
          <mxGeometry x="540" y="890" width="120" height="60" as="geometry" />
        </mxCell>
        <mxCell id="R4eB-m3aGLz5YVXcL1x6-63" value="0" style="text;html=1;align=center;verticalAlign=middle;resizable=0;points=[];autosize=1;strokeColor=none;fillColor=none;" vertex="1" parent="1">
          <mxGeometry x="426" y="882" width="30" height="30" as="geometry" />
        </mxCell>
        <mxCell id="R4eB-m3aGLz5YVXcL1x6-64" value="1" style="text;html=1;align=center;verticalAlign=middle;resizable=0;points=[];autosize=1;strokeColor=none;fillColor=none;" vertex="1" parent="1">
          <mxGeometry x="425" y="914" width="30" height="30" as="geometry" />
        </mxCell>
        <mxCell id="R4eB-m3aGLz5YVXcL1x6-66" value="" style="endArrow=none;html=1;rounded=0;exitX=0.2;exitY=0;exitDx=0;exitDy=0;exitPerimeter=0;" edge="1" source="R4eB-m3aGLz5YVXcL1x6-69" parent="1">
          <mxGeometry width="50" height="50" relative="1" as="geometry">
            <mxPoint x="590" y="872" as="sourcePoint" />
            <mxPoint x="600" y="1082" as="targetPoint" />
          </mxGeometry>
        </mxCell>
        <mxCell id="R4eB-m3aGLz5YVXcL1x6-67" value="1" style="edgeLabel;html=1;align=center;verticalAlign=middle;resizable=0;points=[];" vertex="1" connectable="0" parent="R4eB-m3aGLz5YVXcL1x6-66">
          <mxGeometry x="0.2737" y="-1" relative="1" as="geometry">
            <mxPoint x="-11" y="-9" as="offset" />
          </mxGeometry>
        </mxCell>
        <mxCell id="R4eB-m3aGLz5YVXcL1x6-68" value="" style="endArrow=none;html=1;rounded=0;exitX=0.8;exitY=0;exitDx=0;exitDy=0;exitPerimeter=0;" edge="1" parent="1">
          <mxGeometry width="50" height="50" relative="1" as="geometry">
            <mxPoint x="630" y="1020" as="sourcePoint" />
            <mxPoint x="600" y="1020" as="targetPoint" />
          </mxGeometry>
        </mxCell>
        <mxCell id="R4eB-m3aGLz5YVXcL1x6-69" value="I" style="shape=stencil(rZTvDoIgFMWfhq8OIZt9bFbvQUrJInBg/96+q5RTzFbU5tzuOd6fXDmCaGZLVnFEcInoChESYwx3qC9ezWzF89qJZ2YE20ruHFsbfeAXUdQPhlAlN6JuXLpGeAnPNBfNcq0UQIRWduD0fIAxoaAXXx0MR8S95vaoXYXI5gtE+jsiGSDiEAT2lhHNQiix9z2ieQhl4UGS1xCagTK1bTTbsvywN/qkinHXpLfThr8wOltI6SL1ZqiKNWEbGU/7qM+8N+3nu/8ESKF6AI/Q/RPfMNI/MLqm8FHmPxOSIYEGIGYBi8iltu8SAfpEKOCMm4pT2zbKY6u6c7EV7g==);whiteSpace=wrap;html=1;rotation=-90;" vertex="1" parent="1">
          <mxGeometry x="610" y="1022" width="100" height="60" as="geometry" />
        </mxCell>
        <mxCell id="R4eB-m3aGLz5YVXcL1x6-70" value="" style="endArrow=none;html=1;rounded=0;" edge="1" parent="1">
          <mxGeometry width="50" height="50" relative="1" as="geometry">
            <mxPoint x="410" y="1152" as="sourcePoint" />
            <mxPoint x="760" y="1152" as="targetPoint" />
            <Array as="points" />
          </mxGeometry>
        </mxCell>
        <mxCell id="R4eB-m3aGLz5YVXcL1x6-71" value="" style="endArrow=none;html=1;rounded=0;" edge="1" parent="1">
          <mxGeometry width="50" height="50" relative="1" as="geometry">
            <mxPoint x="760" y="1152" as="sourcePoint" />
            <mxPoint x="760" y="1052" as="targetPoint" />
            <Array as="points" />
          </mxGeometry>
        </mxCell>
        <mxCell id="R4eB-m3aGLz5YVXcL1x6-72" value="" style="endArrow=none;html=1;rounded=0;entryX=0.5;entryY=1;entryDx=0;entryDy=0;entryPerimeter=0;" edge="1" target="R4eB-m3aGLz5YVXcL1x6-69" parent="1">
          <mxGeometry width="50" height="50" relative="1" as="geometry">
            <mxPoint x="760" y="1052" as="sourcePoint" />
            <mxPoint x="690" y="911.5699999999999" as="targetPoint" />
            <Array as="points" />
          </mxGeometry>
        </mxCell>
        <mxCell id="R4eB-m3aGLz5YVXcL1x6-73" value="" style="endArrow=none;html=1;rounded=0;" edge="1" parent="1">
          <mxGeometry width="50" height="50" relative="1" as="geometry">
            <mxPoint x="410" y="1152" as="sourcePoint" />
            <mxPoint x="410" y="930" as="targetPoint" />
            <Array as="points" />
          </mxGeometry>
        </mxCell>
        <mxCell id="R4eB-m3aGLz5YVXcL1x6-74" value="" style="endArrow=none;html=1;rounded=0;entryX=0.5;entryY=1;entryDx=0;entryDy=0;" edge="1" parent="1">
          <mxGeometry width="50" height="50" relative="1" as="geometry">
            <mxPoint x="600" y="1020" as="sourcePoint" />
            <mxPoint x="600" y="950" as="targetPoint" />
            <Array as="points" />
          </mxGeometry>
        </mxCell>
        <mxCell id="R4eB-m3aGLz5YVXcL1x6-77" value="o_mem_addr" style="text;html=1;align=center;verticalAlign=middle;resizable=0;points=[];autosize=1;strokeColor=none;fillColor=none;" vertex="1" parent="1">
          <mxGeometry x="730" y="545" width="90" height="30" as="geometry" />
        </mxCell>
        <mxCell id="R4eB-m3aGLz5YVXcL1x6-79" value="= 0 ?" style="rounded=0;whiteSpace=wrap;html=1;" vertex="1" parent="1">
          <mxGeometry x="740" y="890" width="120" height="60" as="geometry" />
        </mxCell>
        <mxCell id="R4eB-m3aGLz5YVXcL1x6-81" value="&lt;b&gt;&lt;font style=&quot;font-size: 18px;&quot;&gt;K&lt;/font&gt;&lt;/b&gt;" style="text;html=1;align=center;verticalAlign=middle;resizable=0;points=[];autosize=1;strokeColor=none;fillColor=none;" vertex="1" parent="1">
          <mxGeometry x="310" y="960" width="40" height="40" as="geometry" />
        </mxCell>
        <mxCell id="R4eB-m3aGLz5YVXcL1x6-82" value="" style="endArrow=classic;html=1;rounded=0;entryX=0.501;entryY=0.137;entryDx=0;entryDy=0;entryPerimeter=0;strokeColor=#FF0000;" edge="1" parent="1" target="R4eB-m3aGLz5YVXcL1x6-54">
          <mxGeometry width="50" height="50" relative="1" as="geometry">
            <mxPoint x="463" y="1000" as="sourcePoint" />
            <mxPoint x="462.6550000000002" y="957.79" as="targetPoint" />
          </mxGeometry>
        </mxCell>
        <mxCell id="R4eB-m3aGLz5YVXcL1x6-83" value="k_sel" style="edgeLabel;html=1;align=center;verticalAlign=middle;resizable=0;points=[];fontColor=#FF0000;" vertex="1" connectable="0" parent="R4eB-m3aGLz5YVXcL1x6-82">
          <mxGeometry x="-0.2046" relative="1" as="geometry">
            <mxPoint x="17" y="8" as="offset" />
          </mxGeometry>
        </mxCell>
        <mxCell id="R4eB-m3aGLz5YVXcL1x6-84" value="" style="endArrow=classic;html=1;rounded=0;entryX=1;entryY=1;entryDx=0;entryDy=0;strokeColor=#FF0000;" edge="1" parent="1" target="R4eB-m3aGLz5YVXcL1x6-61">
          <mxGeometry width="50" height="50" relative="1" as="geometry">
            <mxPoint x="690" y="980" as="sourcePoint" />
            <mxPoint x="670" y="944" as="targetPoint" />
          </mxGeometry>
        </mxCell>
        <mxCell id="R4eB-m3aGLz5YVXcL1x6-85" value="r4_load" style="edgeLabel;html=1;align=center;verticalAlign=middle;resizable=0;points=[];fontColor=#FF0000;" vertex="1" connectable="0" parent="R4eB-m3aGLz5YVXcL1x6-84">
          <mxGeometry x="-0.2046" relative="1" as="geometry">
            <mxPoint x="17" y="8" as="offset" />
          </mxGeometry>
        </mxCell>
        <mxCell id="R4eB-m3aGLz5YVXcL1x6-86" value="" style="endArrow=classic;html=1;rounded=0;strokeColor=#FF0000;exitX=1;exitY=0.5;exitDx=0;exitDy=0;" edge="1" parent="1" source="R4eB-m3aGLz5YVXcL1x6-79">
          <mxGeometry width="50" height="50" relative="1" as="geometry">
            <mxPoint x="920" y="930" as="sourcePoint" />
            <mxPoint x="920" y="920" as="targetPoint" />
          </mxGeometry>
        </mxCell>
        <mxCell id="R4eB-m3aGLz5YVXcL1x6-87" value="k_is0" style="edgeLabel;html=1;align=center;verticalAlign=middle;resizable=0;points=[];fontColor=#FF0000;" vertex="1" connectable="0" parent="R4eB-m3aGLz5YVXcL1x6-86">
          <mxGeometry x="-0.2046" relative="1" as="geometry">
            <mxPoint x="6" y="9" as="offset" />
          </mxGeometry>
        </mxCell>
        <mxCell id="R4eB-m3aGLz5YVXcL1x6-88" value="" style="endArrow=classic;html=1;rounded=0;entryX=0.54;entryY=0.144;entryDx=0;entryDy=0;entryPerimeter=0;strokeColor=#FF0000;" edge="1" parent="1" target="R4eB-m3aGLz5YVXcL1x6-7">
          <mxGeometry width="50" height="50" relative="1" as="geometry">
            <mxPoint x="455" y="635" as="sourcePoint" />
            <mxPoint x="455" y="590" as="targetPoint" />
          </mxGeometry>
        </mxCell>
        <mxCell id="R4eB-m3aGLz5YVXcL1x6-89" value="add_sel" style="edgeLabel;html=1;align=center;verticalAlign=middle;resizable=0;points=[];fontColor=#FF0000;" vertex="1" connectable="0" parent="R4eB-m3aGLz5YVXcL1x6-88">
          <mxGeometry x="-0.2046" relative="1" as="geometry">
            <mxPoint x="25" y="8" as="offset" />
          </mxGeometry>
        </mxCell>
        <mxCell id="R4eB-m3aGLz5YVXcL1x6-90" value="" style="endArrow=classic;html=1;rounded=0;entryX=0;entryY=0;entryDx=0;entryDy=0;strokeColor=#FF0000;" edge="1" parent="1" target="R4eB-m3aGLz5YVXcL1x6-13">
          <mxGeometry width="50" height="50" relative="1" as="geometry">
            <mxPoint x="510" y="501" as="sourcePoint" />
            <mxPoint x="510" y="460" as="targetPoint" />
          </mxGeometry>
        </mxCell>
        <mxCell id="R4eB-m3aGLz5YVXcL1x6-91" value="r5_load" style="edgeLabel;html=1;align=center;verticalAlign=middle;resizable=0;points=[];fontColor=#FF0000;" vertex="1" connectable="0" parent="R4eB-m3aGLz5YVXcL1x6-90">
          <mxGeometry x="-0.2046" relative="1" as="geometry">
            <mxPoint x="22" y="-2" as="offset" />
          </mxGeometry>
        </mxCell>
        <mxCell id="R4eB-m3aGLz5YVXcL1x6-96" value="reg 1" style="whiteSpace=wrap;html=1;" vertex="1" parent="1">
          <mxGeometry x="-200" y="430" width="120" height="60" as="geometry" />
        </mxCell>
        <mxCell id="R4eB-m3aGLz5YVXcL1x6-102" value="= 0 ?" style="rounded=0;whiteSpace=wrap;html=1;" vertex="1" parent="1">
          <mxGeometry x="10" y="430" width="120" height="60" as="geometry" />
        </mxCell>
        <mxCell id="R4eB-m3aGLz5YVXcL1x6-103" value="" style="endArrow=classic;html=1;rounded=0;strokeColor=#FF0000;exitX=1;exitY=0.5;exitDx=0;exitDy=0;" edge="1" source="R4eB-m3aGLz5YVXcL1x6-102" parent="1">
          <mxGeometry width="50" height="50" relative="1" as="geometry">
            <mxPoint x="190" y="470" as="sourcePoint" />
            <mxPoint x="190" y="460" as="targetPoint" />
          </mxGeometry>
        </mxCell>
        <mxCell id="R4eB-m3aGLz5YVXcL1x6-104" value="r1_is0" style="edgeLabel;html=1;align=center;verticalAlign=middle;resizable=0;points=[];fontColor=#FF0000;" vertex="1" connectable="0" parent="R4eB-m3aGLz5YVXcL1x6-103">
          <mxGeometry x="-0.2046" relative="1" as="geometry">
            <mxPoint x="6" y="9" as="offset" />
          </mxGeometry>
        </mxCell>
        <mxCell id="R4eB-m3aGLz5YVXcL1x6-105" value="" style="edgeStyle=orthogonalEdgeStyle;rounded=0;orthogonalLoop=1;jettySize=auto;html=1;exitX=1;exitY=0.5;exitDx=0;exitDy=0;" edge="1" target="R4eB-m3aGLz5YVXcL1x6-102" parent="1" source="R4eB-m3aGLz5YVXcL1x6-96">
          <mxGeometry relative="1" as="geometry">
            <mxPoint x="-70" y="460" as="sourcePoint" />
          </mxGeometry>
        </mxCell>
        <mxCell id="R4eB-m3aGLz5YVXcL1x6-106" value="reg 2" style="whiteSpace=wrap;html=1;" vertex="1" parent="1">
          <mxGeometry x="-200" y="620" width="120" height="60" as="geometry" />
        </mxCell>
        <mxCell id="R4eB-m3aGLz5YVXcL1x6-107" value="= 0 ?" style="rounded=0;whiteSpace=wrap;html=1;" vertex="1" parent="1">
          <mxGeometry x="10" y="620" width="120" height="60" as="geometry" />
        </mxCell>
        <mxCell id="R4eB-m3aGLz5YVXcL1x6-108" value="" style="endArrow=classic;html=1;rounded=0;strokeColor=#FF0000;exitX=1;exitY=0.5;exitDx=0;exitDy=0;" edge="1" parent="1">
          <mxGeometry width="50" height="50" relative="1" as="geometry">
            <mxPoint x="129.99999999999977" y="650" as="sourcePoint" />
            <mxPoint x="190" y="650" as="targetPoint" />
          </mxGeometry>
        </mxCell>
        <mxCell id="R4eB-m3aGLz5YVXcL1x6-109" value="r2_is0" style="edgeLabel;html=1;align=center;verticalAlign=middle;resizable=0;points=[];fontColor=#FF0000;" vertex="1" connectable="0" parent="R4eB-m3aGLz5YVXcL1x6-108">
          <mxGeometry x="-0.2046" relative="1" as="geometry">
            <mxPoint x="6" y="9" as="offset" />
          </mxGeometry>
        </mxCell>
        <mxCell id="R4eB-m3aGLz5YVXcL1x6-110" value="" style="edgeStyle=orthogonalEdgeStyle;rounded=0;orthogonalLoop=1;jettySize=auto;html=1;exitX=1;exitY=0.5;exitDx=0;exitDy=0;" edge="1" source="R4eB-m3aGLz5YVXcL1x6-106" target="R4eB-m3aGLz5YVXcL1x6-107" parent="1">
          <mxGeometry relative="1" as="geometry">
            <mxPoint x="-70" y="650" as="sourcePoint" />
          </mxGeometry>
        </mxCell>
        <mxCell id="R4eB-m3aGLz5YVXcL1x6-111" value="" style="endArrow=classic;html=1;rounded=0;exitX=0.5;exitY=1;exitDx=0;exitDy=0;entryX=0.5;entryY=0;entryDx=0;entryDy=0;" edge="1" parent="1" source="R4eB-m3aGLz5YVXcL1x6-96" target="R4eB-m3aGLz5YVXcL1x6-106">
          <mxGeometry width="50" height="50" relative="1" as="geometry">
            <mxPoint y="570" as="sourcePoint" />
            <mxPoint x="50" y="520" as="targetPoint" />
          </mxGeometry>
        </mxCell>
        <mxCell id="R4eB-m3aGLz5YVXcL1x6-112" value="" style="shape=stencil(rZPhDoIgFIWfhr8NYc3+Nqv3QKVkEjggrbfvKupKw5Vrc2z3HM6H3iuIJrZgFUcEF4geECERxrBC3UxqZiueOS/WzAiWSu4d64wueSNy1zOEKrgRrnXpEeE97GkfmmRaKYAIreyb8+IDjAkFWXz3sP74R19tyNYLiJxWM+IVjGjCWPMaQ2iE7AIUmoAS6hZNUpaVF6NvKp+ngt5ZG/7BGG0hpZ/kwldVrJ3xzBjsq655sOtL/RoAUqggYPwTf0GMoR4S/4FBv2JkUtulVoIe6CbcydAcuthskJ3q73EnPAE=);whiteSpace=wrap;html=1;flipV=1;fontSize=8;rotation=126;" vertex="1" parent="1">
          <mxGeometry x="-195" y="944" width="55" height="110" as="geometry" />
        </mxCell>
        <mxCell id="R4eB-m3aGLz5YVXcL1x6-113" value="" style="endArrow=none;html=1;rounded=0;exitX=0;exitY=0.25;exitDx=0;exitDy=0;exitPerimeter=0;" edge="1" parent="1" source="R4eB-m3aGLz5YVXcL1x6-112">
          <mxGeometry width="50" height="50" relative="1" as="geometry">
            <mxPoint x="-165" y="950" as="sourcePoint" />
            <mxPoint x="-140" y="920" as="targetPoint" />
          </mxGeometry>
        </mxCell>
        <mxCell id="R4eB-m3aGLz5YVXcL1x6-114" value="" style="endArrow=none;html=1;rounded=0;entryX=0.003;entryY=0.64;entryDx=0;entryDy=0;entryPerimeter=0;" edge="1" target="R4eB-m3aGLz5YVXcL1x6-112" parent="1">
          <mxGeometry width="50" height="50" relative="1" as="geometry">
            <mxPoint x="-100" y="940" as="sourcePoint" />
            <mxPoint x="-260" y="1004" as="targetPoint" />
          </mxGeometry>
        </mxCell>
        <mxCell id="R4eB-m3aGLz5YVXcL1x6-116" value="0" style="text;html=1;align=center;verticalAlign=middle;resizable=0;points=[];autosize=1;strokeColor=none;fillColor=none;" vertex="1" parent="1">
          <mxGeometry x="-195" y="950" width="30" height="30" as="geometry" />
        </mxCell>
        <mxCell id="R4eB-m3aGLz5YVXcL1x6-117" value="1" style="text;html=1;align=center;verticalAlign=middle;resizable=0;points=[];autosize=1;strokeColor=none;fillColor=none;" vertex="1" parent="1">
          <mxGeometry x="-159" y="978" width="30" height="30" as="geometry" />
        </mxCell>
        <mxCell id="R4eB-m3aGLz5YVXcL1x6-119" value="" style="endArrow=none;html=1;rounded=0;entryX=0.5;entryY=1;entryDx=0;entryDy=0;" edge="1" parent="1" target="R4eB-m3aGLz5YVXcL1x6-106">
          <mxGeometry width="50" height="50" relative="1" as="geometry">
            <mxPoint x="-140" y="920" as="sourcePoint" />
            <mxPoint x="-130" y="930" as="targetPoint" />
          </mxGeometry>
        </mxCell>
        <mxCell id="R4eB-m3aGLz5YVXcL1x6-120" value="" style="endArrow=classic;html=1;rounded=0;entryX=0.494;entryY=0.183;entryDx=0;entryDy=0;entryPerimeter=0;strokeColor=#FF0000;" edge="1" parent="1">
          <mxGeometry width="50" height="50" relative="1" as="geometry">
            <mxPoint x="-244.48" y="950" as="sourcePoint" />
            <mxPoint x="-199.99645346059785" y="978.2369526444177" as="targetPoint" />
          </mxGeometry>
        </mxCell>
        <mxCell id="R4eB-m3aGLz5YVXcL1x6-121" value="write_sel" style="edgeLabel;html=1;align=center;verticalAlign=middle;resizable=0;points=[];fontColor=#FF0000;" vertex="1" connectable="0" parent="R4eB-m3aGLz5YVXcL1x6-120">
          <mxGeometry x="-0.2046" relative="1" as="geometry">
            <mxPoint x="-3" y="-17" as="offset" />
          </mxGeometry>
        </mxCell>
      </root>
    </mxGraphModel>
  </diagram>
</mxfile>
